<svg version="1.1" id="Layer_1" xmlns="http://www.w3.org/2000/svg" xmlns:xlink="http://www.w3.org/1999/xlink" x="0px" y="0px"
	 width="100%" viewBox="0 0 560 256" enable-background="new 0 0 560 256" xml:space="preserve">
<path fill="#000000" opacity="1.000000" stroke="none" 
	d="
M303.884338,114.999252 
	C302.961578,112.921249 303.194977,111.346939 304.903320,110.347183 
	C306.661255,109.318420 308.120117,110.282669 309.376740,111.463989 
	C311.196472,113.174660 312.952759,114.953377 314.719757,116.719437 
	C330.154022,132.145767 345.593872,147.566483 361.010498,163.010406 
	C365.480927,167.488724 365.510162,168.449249 361.189728,172.779922 
	C344.483704,189.525543 327.749847,206.243423 311.012238,222.957443 
	C310.074554,223.893799 309.076080,224.799713 307.986572,225.545441 
	C306.767365,226.379929 305.434082,226.327942 304.337219,225.248276 
	C303.291687,224.219147 302.878082,222.831696 303.662415,221.604370 
	C304.633209,220.085236 305.865387,218.698807 307.147675,217.418304 
	C320.937439,203.647293 334.761780,189.910873 348.568329,176.156662 
	C349.731903,174.997528 350.835571,173.778305 352.154907,172.389267 
	C350.229492,170.684875 348.172150,171.337418 346.350708,171.335480 
	C301.374329,171.287460 256.397919,171.318283 211.421661,171.234070 
	C208.553482,171.228714 203.909927,172.657928 203.837524,168.067169 
	C203.763824,163.394638 208.429932,164.782242 211.287415,164.776932 
	C255.930496,164.694092 300.573761,164.724731 345.216980,164.690689 
	C347.319061,164.689087 349.502960,165.166870 352.456635,163.756561 
	C336.133423,147.416336 320.099121,131.365341 303.884338,114.999252 
z"/>
</svg>